<?xml version="1.0" encoding="UTF-8" standalone="no"?>
<!-- Created with Inkscape (http://www.inkscape.org/) -->

<svg
   width="1366"
   height="768"
   viewBox="0 0 1366 768"
   version="1.1"
   id="svg5"
   inkscape:version="1.1.2 (0a00cf5339, 2022-02-04)"
   sodipodi:docname="griddvsd.svg"
   xmlns:inkscape="http://www.inkscape.org/namespaces/inkscape"
   xmlns:sodipodi="http://sodipodi.sourceforge.net/DTD/sodipodi-0.dtd"
   xmlns="http://www.w3.org/2000/svg"
   xmlns:svg="http://www.w3.org/2000/svg">
  <sodipodi:namedview
     id="namedview7"
     pagecolor="#ffffff"
     bordercolor="#666666"
     borderopacity="1.0"
     inkscape:pageshadow="2"
     inkscape:pageopacity="0.0"
     inkscape:pagecheckerboard="0"
     inkscape:document-units="px"
     showgrid="true"
     inkscape:zoom="0.64306408"
     inkscape:cx="940.03074"
     inkscape:cy="382.54353"
     inkscape:window-width="1366"
     inkscape:window-height="709"
     inkscape:window-x="0"
     inkscape:window-y="0"
     inkscape:window-maximized="1"
     inkscape:current-layer="layer1">
    <inkscape:grid
       type="xygrid"
       id="grid9" />
  </sodipodi:namedview>
  <defs
     id="defs2">
    <inkscape:path-effect
       effect="construct_grid"
       id="path-effect1041"
       is_visible="true"
       lpeversion="1"
       nr_x="6"
       nr_y="11" />
    <inkscape:path-effect
       effect="construct_grid"
       id="path-effect120"
       is_visible="true"
       lpeversion="1"
       nr_x="7"
       nr_y="14" />
  </defs>
  <g
     inkscape:label="Capa 1"
     inkscape:groupmode="layer"
     id="layer1">
    <path
       style="fill:none;fill-opacity:0.470588;stroke:#000000;stroke-width:1;stroke-miterlimit:4;stroke-dasharray:none;stroke-opacity:1"
       id="rect224"
       width="125"
       height="125"
       x="1250.5"
       y="0.5"
       inkscape:path-effect="#path-effect1041"
       d="M 1375.5,0.5 H 0.5 m 1375,125 H 0.5 m 1375,125 H 0.5 m 1375,125 H 0.5 m 1375,125 H 0.5 m 1375,125 H 0.5 m 1375,125 H 0.5 m 1375,-750 v 750 m -125,-750 v 750 m -125,-750 v 750 m -125,-750 v 750 m -125,-750 v 750 m -125,-750 v 750 m -125,-750 v 750 m -125,-750 v 750 m -125,-750 v 750 m -125,-750 v 750 m -125,-750 v 750 M 0.5,0.5 v 750"
       sodipodi:type="rect" />
  </g>
</svg>
