<?xml version="1.0" encoding="UTF-8" standalone="no"?>
<!-- Created with Inkscape (http://www.inkscape.org/) -->

<svg
   xmlns:dc="http://purl.org/dc/elements/1.1/"
   xmlns:cc="http://creativecommons.org/ns#"
   xmlns:rdf="http://www.w3.org/1999/02/22-rdf-syntax-ns#"
   xmlns:svg="http://www.w3.org/2000/svg"
   xmlns="http://www.w3.org/2000/svg"
   xmlns:sodipodi="http://sodipodi.sourceforge.net/DTD/sodipodi-0.dtd"
   xmlns:inkscape="http://www.inkscape.org/namespaces/inkscape"
   width="75"
   height="100"
   viewBox="0 0 19.84375 26.458334"
   version="1.1"
   id="svg8"
   inkscape:version="0.92.5 (2060ec1f9f, 2020-04-08)"
   sodipodi:docname="p0_1.svg"
   inkscape:export-filename="/home/yango/proj/dvsd/assets/p0_0.png"
   inkscape:export-xdpi="96"
   inkscape:export-ydpi="96">
  <defs
     id="defs2" />
  <sodipodi:namedview
     id="base"
     pagecolor="#ffffff"
     bordercolor="#666666"
     borderopacity="1.0"
     inkscape:pageopacity="0"
     inkscape:pageshadow="2"
     inkscape:zoom="0.75575672"
     inkscape:cx="-131.48798"
     inkscape:cy="277.76707"
     inkscape:document-units="mm"
     inkscape:current-layer="layer1"
     showgrid="false"
     units="px"
     inkscape:window-width="1920"
     inkscape:window-height="1015"
     inkscape:window-x="0"
     inkscape:window-y="0"
     inkscape:window-maximized="1"
     inkscape:pagecheckerboard="false" />
  <metadata
     id="metadata5">
    <rdf:RDF>
      <cc:Work
         rdf:about="">
        <dc:format>image/svg+xml</dc:format>
        <dc:type
           rdf:resource="http://purl.org/dc/dcmitype/StillImage" />
        <dc:title></dc:title>
      </cc:Work>
    </rdf:RDF>
  </metadata>
  <g
     inkscape:label="Capa 1"
     inkscape:groupmode="layer"
     id="layer1"
     transform="translate(0,-270.54165)">
    <path
       id="path12"
       d="m 9.4013238,277.32054 c 0.5338686,1.09779 1.2267232,2.07569 2.0184612,2.99952 0.652736,0.75018 1.299834,1.49957 1.976169,2.22768 0.413181,0.52669 1.038975,0.70538 1.577276,1.04182 0.499706,0.21138 0.974033,0.46198 1.452081,0.71812 0.439881,0.28844 0.719501,0.61778 0.87424,1.11766 0.09247,0.41735 0.09742,0.84793 0.07451,1.27289 -0.06421,0.23988 -0.168216,0.52481 -0.400441,0.65881 -3.176194,1.83284 -3.166451,2.50728 -5.35482,2.72946 -0.539847,0.12972 -1.015531,0.4082 -1.544862,0.56076 -0.5728043,0.1335 -1.1592461,0.16687 -1.7450116,0.17839 -0.4743529,0.0666 -1.0147276,-0.11304 -1.4562251,0.0895 0.1394359,-0.0808 -0.5039373,0.20589 -0.385422,0.1382 1.4418313,-0.8235 2.893541,-1.62958 4.3417387,-2.44183 0.10386,-0.0582 -0.201279,0.12745 -0.304601,0.18665 -1.5433485,0.88427 -3.0888224,1.76482 -4.6332336,2.64724 10.5521446,-5.19013 4.4560256,-3.17401 3.6047063,-1.8771 -0.1720421,0.27127 -0.4029625,0.49163 -0.6023914,0.73978 0,0 -4.7824522,2.09107 -4.7824522,2.09107 v 0 c 0.1706226,-0.30159 0.4054382,-0.49774 0.5896766,-0.78133 0.1499515,-0.15274 0.201459,-0.32326 0.3394218,-0.4872 1.2371236,-1.47004 5.5190055,0.84327 4.932237,-2.93612 -11.3542061,6.56901 0.4721155,-0.23833 0.6394215,-0.33088 0.0461,-0.0255 0.380037,-0.0853 0.416429,-0.0923 0.497266,0.002 0.994702,0.004 1.491631,-0.018 0.560933,-0.0373 1.125325,-0.0995 1.655163,-0.29952 0.515817,-0.21007 1.037699,-0.40637 1.592593,-0.48807 0.192647,-0.046 0.738656,-0.27452 0.568358,-0.17337 -1.396474,0.82941 -2.81893,1.61458 -4.214685,2.44521 -0.129587,0.0771 0.293245,-0.0874 0.41901,-0.17057 0.04772,-0.0316 0.0859,-0.0756 0.12885,-0.11344 0.180083,-0.28757 0.04207,-0.71249 0.04488,-1.03924 -0.07745,-0.37093 -0.311104,-0.57699 -0.640252,-0.76483 -0.479171,-0.26426 -0.990789,-0.4568 -1.465421,-0.72882 -0.601706,-0.32376 -1.1867667,-0.65575 -1.6358096,-1.18846 -0.6699187,-0.74019 -1.301546,-1.50944 -1.9519574,-2.26683 -0.7794969,-0.93569 -1.462759,-1.92964 -2.0832726,-2.97677 0,0 4.4640084,-2.66805 4.4640084,-2.66805 z"
       inkscape:connector-curvature="0"
       style="stroke-width:0.26458332;fill:#ff0000"
       inkscape:export-xdpi="96"
       inkscape:export-ydpi="96" />
  </g>
</svg>
